<?xml version="1.0" encoding="UTF-8"?>
<svg width="20px" height="20px" viewBox="0 0 20 20" version="1.1" xmlns="http://www.w3.org/2000/svg"
    xmlns:xlink="http://www.w3.org/1999/xlink">
    <title></title>
    <g stroke="none" stroke-width="1" fill="none" fill-rule="evenodd">
        <path
            d="M16.25,17 C16.6642136,17 17,17.3357864 17,17.75 C17,18.1642136 16.6642136,18.5 16.25,18.5 L3.75,18.5 C3.33578644,18.5 3,18.1642136 3,17.75 C3,17.3357864 3.33578644,17 3.75,17 L16.25,17 Z M13.0526316,1.5 C13.6049163,1.5 14.0526316,1.94771525 14.0526316,2.5 L14.0523605,7.998 L15.5697428,7.9982007 C15.7600256,7.9982007 15.9453239,8.05246037 16.1044923,8.15318746 L16.2186389,8.23732367 C16.606535,8.56813175 16.6790922,9.13138609 16.4060876,9.54659818 L16.3306198,9.6470968 L10.9306271,15.978974 C10.9052772,16.0086985 10.8776098,16.0363659 10.8478853,16.0617158 C10.5656145,16.3024438 10.1545224,16.2937126 9.88316247,16.056854 L9.80621501,15.978974 L4.40622231,9.6470968 C4.25188007,9.4661195 4.16709934,9.23605424 4.16709934,8.9982007 C4.16709934,8.48536486 4.55313953,8.06269354 5.05047821,8.00492843 L5.16709934,7.9982007 L6.68336051,7.998 L6.68421053,2.5 C6.68421053,1.94771525 7.13192578,1.5 7.68421053,1.5 L13.0526316,1.5 Z M12.552,2.999 L8.184,2.999 L8.18312865,9.4978015 L6.249,9.496 L10.368,14.326 L14.49,9.497 L12.5522866,9.49780161 L12.552,2.999 Z"
            fill="#757575" fill-rule="nonzero"></path>
    </g>
</svg>