<?xml version="1.0" encoding="UTF-8"?>
<svg width="20px" height="20px" viewBox="0 0 20 20" version="1.1" xmlns="http://www.w3.org/2000/svg"
    xmlns:xlink="http://www.w3.org/1999/xlink">
    <title></title>
    <g stroke="none" stroke-width="1" fill="none" fill-rule="evenodd">
        <path
            d="M3.83080574,17.33 C3.41136789,17.33 2.99207994,17.1696002 2.67337914,16.8505996 C2.36487195,16.5417926 2.19442848,16.1305996 2.19442848,15.6904747 C2.19442848,15.2518488 2.36487195,14.8408058 2.67337914,14.5301999 L9.84279825,7.35403497 C9.25651467,5.90549031 9.57521549,4.25562149 10.6917177,3.13806995 C11.5677701,2.26111805 12.8308807,1.85502185 14.0667083,2.05124922 C14.2678826,2.0837789 14.4332292,2.22529044 14.4961899,2.41806995 C14.5593004,2.61084947 14.5080325,2.82416613 14.364872,2.96747657 L13.161574,4.17362273 L13.6268832,5.69382261 L15.1865084,6.19376015 L16.3865084,4.9925609 C16.5298189,4.84925046 16.7410368,4.7979825 16.9354653,4.86124298 C17.1280949,4.92435353 17.2696065,5.0898501 17.3019863,5.29117427 C17.4980637,6.52820112 17.0922673,7.79071206 16.2145659,8.66946284 C15.1577264,9.72735165 13.6253841,10.0788819 12.2258588,9.60787632 L4.98988133,16.8505996 C4.6710306,17.1696002 4.25174267,17.33 3.83080574,17.33 Z M12.5956777,3.21122423 C12.171143,3.34419113 11.780787,3.57804497 11.4553404,3.90394128 C10.580787,4.77924422 10.3848595,6.11176139 10.9676952,7.21732043 C11.078476,7.42718925 11.0392005,7.6847283 10.8722049,7.85202374 L3.43685196,15.2962211 C3.33281699,15.4002561 3.27495315,15.5419176 3.27495315,15.6919738 C3.27495315,15.84203 3.33281699,15.9820425 3.43685196,16.0877264 C3.65496564,16.3061399 4.00949407,16.3061399 4.22610867,16.0877264 L11.7109307,8.59600874 C11.8677327,8.43905684 12.1063835,8.39303559 12.3110056,8.4834291 C13.3916802,8.96282948 14.6222611,8.73422235 15.4507933,7.90494066 C15.7763897,7.57904435 16.0115927,7.1883885 16.1429107,6.76355403 L15.7150781,7.19183634 C15.5717676,7.33499687 15.3608495,7.38641474 15.1679201,7.32480324 L13.0269581,6.63718301 C12.8583136,6.58261712 12.7269956,6.44950031 12.6757277,6.28055591 L12.0314304,4.18021862 C11.9734166,3.98923799 12.0245347,3.78101811 12.1660462,3.63935664 L12.5956777,3.21122423 Z M15.8628643,8.33303508 L15.8991084,8.33303508 L15.8628643,8.33303508 Z M5.45339164,8.65732043 C5.16362274,8.65732043 4.89274203,8.54474079 4.68976889,8.34161774 L2.31540287,5.96335415 C2.11257963,5.76023111 2,5.48905059 2,5.19898188 C2,4.90891317 2.11257963,4.63758276 2.31540287,4.43460962 L3.43190505,3.31705809 C3.85299188,2.89567146 4.53821362,2.89567146 4.95915053,3.31705809 L7.33531542,5.69547158 C7.53828857,5.89844472 7.65071829,6.16977513 7.65071829,6.45984384 C7.65071829,6.74991255 7.53828857,7.02124296 7.33531542,7.22421611 L6.21881324,8.34176765 C6.01419113,8.54474079 5.74331043,8.65732043 5.45339163,8.65732043 L5.45339164,8.65732043 Z M5.45339163,7.57739538 L5.07158026,7.95965646 L5.45339163,7.57739538 Z M4.1955278,4.08143036 L3.07902561,5.19898188 L5.45339163,7.5757464 L6.57154278,6.45819488 L4.1955278,4.08143036 Z M8.12112429,9.73049969 C7.98306059,9.73049969 7.98306059,9.92327921 7.87737663,9.81744534 L6.14206121,7.91168645 C5.93069331,7.70016864 5.93069331,7.35898188 6.14206121,7.14731418 C6.3534291,6.93579638 6.69431604,6.93579638 6.90568395,7.14731418 L7.71712679,7.95950655 L8.64279825,9.05307308 C8.85416615,9.26459088 8.85416615,9.60592754 8.64279825,9.81744534 C8.5371143,9.92327919 8.25918801,9.73049969 8.12112429,9.73049969 Z M14.4314304,17.2820302 C14.2881092,17.2821593 14.150667,17.225067 14.049619,17.1234291 L10.9114803,13.9824422 C10.8108932,13.8818551 10.7530294,13.7436415 10.7530294,13.600331 C10.7530294,13.4570206 10.8092442,13.318807 10.9114803,13.2180699 L12.2053217,11.9230293 C12.4166896,11.7113616 12.7575765,11.7113616 12.9689444,11.9230293 L16.108732,15.0640162 C16.2093192,15.1647533 16.2673329,15.3029669 16.2673329,15.4462773 C16.2673329,15.5895877 16.211118,15.7278014 16.108732,15.8283885 L14.8132417,17.1234291 C14.7093567,17.229263 14.5712929,17.2820302 14.4314304,17.2820302 Z M12.0569144,13.6001811 L14.4330793,15.9785946 L14.963148,15.4479263 L12.587133,13.0678638 L12.0569144,13.6001811 Z M11.8115178,13.3630294 C11.6734541,13.3630294 11.5353904,13.3101124 11.4297064,13.2042786 L9.86828233,11.6347595 C9.65691443,11.4232417 9.65691443,11.0819051 9.86828233,10.8703873 C10.0796502,10.6587195 10.4205372,10.6587195 10.6319051,10.8703873 L12.1931793,12.4400562 C12.4045472,12.6517239 12.4045472,12.9929107 12.1931793,13.2044285 C12.092166,13.3060267 11.9547863,13.3631154 11.8115178,13.3630294 Z"
            fill="#757575" fill-rule="nonzero"></path>
    </g>
</svg>