<?xml version="1.0" encoding="UTF-8"?>
<svg width="20px" height="20px" viewBox="0 0 20 20" version="1.1" xmlns="http://www.w3.org/2000/svg"
    xmlns:xlink="http://www.w3.org/1999/xlink">
    <title></title>
    <g stroke="none" stroke-width="1" fill="none" fill-rule="evenodd">
        <rect stroke="#757575" stroke-width="1.5" x="1.75" y="1.75" width="16.5" height="16.5" rx="8.25"></rect>
        <path
            d="M9.82993197,12.3702381 C10.3197279,12.3702381 10.5646259,12.090873 10.5646259,11.5321429 C10.5646259,11.3662698 10.5759637,11.2178571 10.5986395,11.0869048 C10.6213152,10.9559524 10.6712018,10.8228175 10.7482993,10.6875 C10.8253968,10.5521825 10.9410431,10.3994048 11.0952381,10.2291667 C11.2494331,10.0589286 11.4580499,9.8515873 11.7210884,9.60714286 C12.1564626,9.18809524 12.478458,8.79960317 12.6870748,8.44166667 C12.8956916,8.08373016 13,7.6952381 13,7.27619048 C13,6.37698413 12.7414966,5.68948413 12.2244898,5.21369048 C11.707483,4.73789683 10.9954649,4.5 10.0884354,4.5 C9.1814059,4.5 8.44217687,4.775 7.8707483,5.325 C7.29024943,5.88373016 7,6.52103175 7,7.23690476 C7,7.73452381 7.26303855,7.98333333 7.78911565,7.98333333 C8.28798186,7.98333333 8.55102041,7.72579365 8.57823129,7.21071429 C8.59637188,6.8702381 8.73696145,6.57996032 9,6.33988095 C9.26303855,6.09980159 9.6122449,5.9797619 10.047619,5.9797619 C10.4829932,5.9797619 10.8231293,6.08452381 11.0680272,6.29404762 C11.3129252,6.50357143 11.4353741,6.8047619 11.4353741,7.19761905 C11.4353741,7.36349206 11.4240363,7.50535714 11.4013605,7.62321429 C11.3786848,7.74107143 11.3287982,7.85892857 11.2517007,7.97678571 C11.1746032,8.09464286 11.0680272,8.22123016 10.9319728,8.35654762 C10.7959184,8.49186508 10.6190476,8.65992063 10.4013605,8.86071429 C9.45804989,9.75119048 8.98639456,10.6416667 8.98639456,11.5321429 C8.98639456,11.6892857 8.99546485,11.8224206 9.01360544,11.9315476 C9.03174603,12.0406746 9.07029478,12.1279762 9.1292517,12.1934524 C9.18820862,12.2589286 9.27210884,12.3047619 9.38095238,12.3309524 C9.48979592,12.3571429 9.63945578,12.3702381 9.82993197,12.3702381 Z M9.72108844,15.5 C9.88435374,15.5 10.0362812,15.4694444 10.1768707,15.4083333 C10.3174603,15.3472222 10.4421769,15.2642857 10.5510204,15.1595238 C10.6598639,15.0547619 10.7460317,14.9347222 10.8095238,14.7994048 C10.8730159,14.6640873 10.9047619,14.5178571 10.9047619,14.3607143 C10.9047619,14.2035714 10.8730159,14.0573413 10.8095238,13.9220238 C10.7460317,13.7867063 10.6598639,13.6666667 10.5510204,13.5619048 C10.4421769,13.4571429 10.3174603,13.3742063 10.1768707,13.3130952 C10.0362812,13.2519841 9.88435374,13.2214286 9.72108844,13.2214286 C9.55782313,13.2214286 9.40589569,13.2519841 9.26530612,13.3130952 C9.12471655,13.3742063 9,13.4571429 8.89115646,13.5619048 C8.78231293,13.6666667 8.69614512,13.7867063 8.63265306,13.9220238 C8.569161,14.0573413 8.53741497,14.2035714 8.53741497,14.3607143 C8.53741497,14.5178571 8.569161,14.6640873 8.63265306,14.7994048 C8.69614512,14.9347222 8.78231293,15.0547619 8.89115646,15.1595238 C9,15.2642857 9.12471655,15.3472222 9.26530612,15.4083333 C9.40589569,15.4694444 9.55782313,15.5 9.72108844,15.5 Z"
            id="？" fill="#757575" fill-rule="nonzero"></path>
    </g>
</svg>